<svg width="1200" height="294" viewBox="0 0 1200 294" fill="none" xmlns="http://www.w3.org/2000/svg">
<path d="M908.848 91.0485C927.782 91.0485 943.131 75.6996 943.131 56.7659C943.131 37.8322 927.782 22.4834 908.848 22.4834C889.914 22.4834 874.565 37.8322 874.565 56.7659C874.565 75.6996 889.914 91.0485 908.848 91.0485Z" fill="#FF4500"/>
<path d="M419.19 202.952C436.008 202.952 445.71 190.338 445.064 178.048C444.74 171.58 444.093 167.375 443.447 164.141C433.097 119.509 396.874 86.5205 353.859 86.5205C302.759 86.5205 261.361 132.77 261.361 189.691C261.361 246.613 302.759 292.862 353.859 292.862C385.878 292.862 408.841 281.219 425.335 262.784C433.42 253.729 431.803 239.822 422.101 233.03C414.015 227.532 403.989 229.472 396.551 235.617C389.435 241.762 375.852 254.052 353.859 254.052C327.986 254.052 305.993 231.736 301.142 202.305H419.19V202.952ZM353.536 125.654C376.822 125.654 396.874 143.766 404.313 168.669H302.759C310.197 143.442 330.25 125.654 353.536 125.654Z" fill="#222222"/>
<path d="M263.301 106.896C263.301 97.1934 256.186 89.4313 247.13 87.8142C218.993 83.6097 192.473 93.9592 177.272 113.041V110.454C177.272 98.4871 167.569 91.0484 157.867 91.0484C147.194 91.0484 138.461 99.7807 138.461 110.454V268.929C138.461 279.279 146.223 288.335 156.573 288.981C167.893 289.628 177.272 280.896 177.272 269.576V187.751C177.272 151.528 204.439 121.773 241.956 125.978H245.837C255.539 125.331 263.301 116.922 263.301 106.896V106.896Z" fill="#222222"/>
<path d="M928.253 127.595C928.253 116.922 919.521 108.19 908.848 108.19C898.175 108.19 889.443 116.922 889.443 127.595V269.576C889.443 280.249 898.175 288.981 908.848 288.981C919.521 288.981 928.253 280.249 928.253 269.576V127.595Z" fill="#222222"/>
<path d="M639.763 20.2194C639.763 9.54655 631.03 0.814209 620.357 0.814209C609.685 0.814209 600.952 9.54655 600.952 20.2194V106.573C587.692 93.3123 571.197 86.8439 551.469 86.8439C500.368 86.8439 458.971 133.093 458.971 190.015C458.971 246.937 500.368 293.186 551.469 293.186C571.197 293.186 588.015 286.394 601.275 273.134C602.893 282.19 610.978 288.981 620.357 288.981C631.03 288.981 639.763 280.249 639.763 269.576V20.2194ZM551.792 254.699C522.038 254.699 498.105 225.914 498.105 190.015C498.105 154.439 522.038 125.331 551.792 125.331C581.547 125.331 605.48 154.115 605.48 190.015C605.48 225.914 581.224 254.699 551.792 254.699Z" fill="#222222"/>
<path d="M842.223 20.2194C842.223 9.54655 833.491 0.814209 822.818 0.814209C812.145 0.814209 803.413 9.54655 803.413 20.2194V106.573C790.153 93.3123 773.658 86.8439 753.93 86.8439C702.829 86.8439 661.432 133.093 661.432 190.015C661.432 246.937 702.829 293.186 753.93 293.186C773.658 293.186 790.476 286.394 803.736 273.134C805.354 282.19 813.439 288.981 822.818 288.981C833.491 288.981 842.223 280.249 842.223 269.576V20.2194V20.2194ZM753.93 254.699C724.175 254.699 700.242 225.914 700.242 190.015C700.242 154.439 724.175 125.331 753.93 125.331C783.684 125.331 807.618 154.115 807.618 190.015C807.618 225.914 783.684 254.699 753.93 254.699Z" fill="#222222"/>
<path d="M1026.57 269.9V125.654H1043.71C1052.77 125.654 1060.86 118.862 1061.5 109.483C1062.15 99.4573 1054.06 91.0484 1044.36 91.0484H1026.57V63.8811C1026.57 53.5316 1018.81 44.4759 1008.46 43.829C997.142 43.1822 987.762 51.9145 987.762 63.2342V91.3718H971.591C962.535 91.3718 954.45 98.1636 953.803 107.543C953.156 117.569 961.242 125.978 970.944 125.978H987.439V270.223C987.439 280.896 996.171 289.628 1006.84 289.628C1018.16 288.981 1026.57 280.572 1026.57 269.9V269.9Z" fill="#222222"/>
</svg>
